HIERARCHY
ROOT Bone_Base
{
	OFFSET -3 -10 -40
	CHANNELS 6 Xposition Yposition Zposition Zrotation Yrotation Xrotation
	JOINT Bone_Trunk
	{
		OFFSET -5.825476 3.965237 102.032760
		CHANNELS 3 Zrotation Yrotation Xrotation
		JOINT Bone_Hip
		{
			OFFSET 14.049603 4.780318 53.331006
			CHANNELS 3 Zrotation Yrotation Xrotation
			JOINT Bone_Torso
			{
				OFFSET -19.875079 -0.815081 48.701763
				CHANNELS 3 Zrotation Yrotation Xrotation
				JOINT Bone_Shoulder_L
				{
					OFFSET -7.312895 1.614314 37.617803
					CHANNELS 3 Zrotation Yrotation Xrotation
					JOINT Bone_Arm_L
					{
						OFFSET 26.428109 -2.880889 -1.154172
						CHANNELS 3 Zrotation Yrotation Xrotation
						JOINT Bone_Forearm_L
						{
							OFFSET 32.937623 4.747575 26.970470
							CHANNELS 3 Zrotation Yrotation Xrotation
							JOINT Bone_Hand_L
							{
								OFFSET -11.464705 -6.068563 36.745137
								CHANNELS 3 Zrotation Yrotation Xrotation
								JOINT Bone_Hand_L.001
								{
									OFFSET 10.328034 1.857357 28.335679
									CHANNELS 3 Zrotation Yrotation Xrotation
									End Site
									{
										OFFSET 8.604929 -1.075437 4.760778
									}
								}
							}
						}
					}
				}
				JOINT Bone_Shoulder_R
				{
					OFFSET -7.312895 1.614314 37.617803
					CHANNELS 3 Zrotation Yrotation Xrotation
					JOINT Bone_Arm_R
					{
						OFFSET -15.571216 -0.198424 1.768148
						CHANNELS 3 Zrotation Yrotation Xrotation
						JOINT Bone_Forearm_R
						{
							OFFSET -27.306356 -0.828655 -33.424687
							CHANNELS 3 Zrotation Yrotation Xrotation
							JOINT Bone_Hand_R
							{
								OFFSET -31.844969 0.886025 -1.609164
								CHANNELS 3 Zrotation Yrotation Xrotation
								JOINT Bone_Hand_R.001
								{
									OFFSET -13.652372 -3.561596 -12.327343
									CHANNELS 3 Zrotation Yrotation Xrotation
									End Site
									{
										OFFSET -7.406867 3.311480 -15.993798
									}
								}
							}
						}
					}
				}
				JOINT Bone_Neck
				{
					OFFSET -7.312895 1.614314 37.617803
					CHANNELS 3 Zrotation Yrotation Xrotation
					JOINT Bone_Head
					{
						OFFSET 2.404062 -4.111349 23.187053
						CHANNELS 3 Zrotation Yrotation Xrotation
						JOINT Bone_Hair
						{
							OFFSET -10.808413 -4.836011 28.511292
							CHANNELS 3 Zrotation Yrotation Xrotation
							End Site
							{
								OFFSET -11.180915 4.140832 30.110800
							}
						}
						JOINT Bone_Ear_L
						{
							OFFSET -10.808413 -4.836011 28.511292
							CHANNELS 3 Zrotation Yrotation Xrotation
							JOINT Bone_Ear_L.001
							{
								OFFSET 19.822566 -5.420644 7.619798
								CHANNELS 3 Zrotation Yrotation Xrotation
								End Site
								{
									OFFSET 8.457186 -1.261548 2.769828
								}
							}
						}
						JOINT Bone_Ear_R
						{
							OFFSET -10.808413 -4.836011 28.511292
							CHANNELS 3 Zrotation Yrotation Xrotation
							JOINT Bone_Ear_R.001
							{
								OFFSET -20.154865 7.907715 -6.604886
								CHANNELS 3 Zrotation Yrotation Xrotation
								End Site
								{
									OFFSET -6.529886 8.646715 -3.674161
								}
							}
						}
					}
				}
			}
		}
	}
}
MOTION
Frames: 12
Frame Time: 0.01
29.233398 -9.233962 9.998515 0.000000 0.000000 0.000000 -0.000002 -0.000001 0.000000 -0.000002 -0.000001 -0.000000 -0.000005 0.000000 0.000000 -0.000003 -0.000000 0.000000 0.000000 0.000001 -0.000000 -0.000001 0.000002 0.000001 -0.000001 -0.000001 0.000001 0.000002 -0.000001 0.000001 -0.000003 -0.000000 0.000000 -0.000001 -0.000002 -0.000001 -0.000001 -0.000002 -0.000001 0.000002 0.000002 0.000002 -0.000001 0.000001 0.000002 -0.000005 -0.000000 0.000001 -0.000000 -0.000001 0.000001 0.000003 0.000000 0.000002 -3.391873 5.741648 -3.301555 -0.000001 0.000004 0.000004 0.000000 -0.000001 0.000003 0.000000 -0.000000 0.000000 
29.233398 -9.233962 9.998515 0.000000 0.000000 0.000000 -0.000184 -0.001699 0.001264 -0.001679 0.011000 -0.004564 0.000256 -0.006292 0.000664 0.000255 -0.006090 0.000642 0.004056 0.057458 0.001722 -0.001277 0.030273 -0.003191 -0.000000 -0.000002 -0.000001 0.000002 -0.000000 -0.000003 0.000248 -0.005915 0.000624 0.004627 -0.022988 -0.005620 0.001057 -0.025052 0.002636 -0.001072 0.002237 -0.000064 0.000000 0.000005 0.000002 0.000107 -0.002467 0.000260 0.006746 0.006869 0.005335 -0.000000 -0.000001 -0.000002 -3.391875 5.741645 -3.301555 -0.000000 0.000001 0.000003 0.000001 -0.000002 0.000001 0.000000 -0.000004 -0.000002 
29.233398 -9.233962 9.998515 0.000000 0.000000 0.000000 -0.000707 -0.006802 0.004977 -0.006620 0.043574 -0.017972 0.001044 -0.024838 0.002617 0.001016 -0.024043 0.002533 0.016040 0.227067 0.006828 -0.005060 0.119527 -0.012603 0.000003 -0.000001 0.000001 0.000001 0.000001 -0.000000 0.000985 -0.023349 0.002461 0.018292 -0.090747 -0.022196 0.004168 -0.098919 0.010416 -0.004247 0.008819 -0.000246 -0.000005 0.000002 -0.000000 0.000409 -0.009737 0.001028 0.026647 0.027109 0.021069 0.000005 -0.000001 -0.000002 -3.391873 5.741644 -3.301554 -0.000003 0.000005 -0.000001 0.000003 -0.000002 0.000003 0.000001 -0.000002 0.000000 
29.233398 -9.233962 9.998515 0.000000 0.000000 0.000000 -0.001554 -0.015332 0.011033 -0.014696 0.097136 -0.039821 0.002332 -0.055162 0.005813 0.002256 -0.053398 0.005626 0.035720 0.505211 0.015276 -0.011288 0.265557 -0.028015 -0.000000 0.000002 -0.000001 0.000005 -0.000001 -0.000001 0.002190 -0.051857 0.005465 0.040685 -0.201576 -0.049347 0.009240 -0.219747 0.023137 -0.009435 0.019574 -0.000547 -0.000004 -0.000000 -0.000000 0.000918 -0.021628 0.002280 0.059207 0.060198 0.046799 0.000001 0.000002 -0.000003 -3.391874 5.741648 -3.301558 0.000001 0.000003 -0.000001 0.000002 -0.000000 0.000002 0.000002 -0.000006 0.000003 
29.233398 -9.233962 9.998515 0.000000 0.000000 0.000000 -0.002692 -0.027315 0.019328 -0.025778 0.171127 -0.069726 0.004074 -0.096822 0.010200 0.003952 -0.093725 0.009874 0.062941 0.888890 0.027092 -0.019906 0.466324 -0.049234 0.000002 0.000000 -0.000001 0.000003 0.000001 -0.000002 0.003836 -0.091021 0.009588 0.071537 -0.353870 -0.086731 0.016165 -0.385820 0.040602 -0.016574 0.034355 -0.000958 -0.000004 0.000005 0.000001 0.001604 -0.037961 0.004000 0.103988 0.105627 0.082178 -0.000000 0.000000 0.000000 -3.391874 5.741645 -3.301557 -0.000002 0.000001 0.000002 -0.000002 -0.000000 0.000002 0.000003 -0.000001 -0.000001 
29.233398 -9.233962 9.998515 0.000000 0.000000 0.000000 -0.004094 -0.042779 0.029763 -0.039752 0.265026 -0.107329 0.006289 -0.149392 0.015736 0.006091 -0.144614 0.015232 0.097597 1.375689 0.042349 -0.030899 0.719927 -0.076077 0.000003 0.000004 -0.000000 0.000001 0.000001 0.000001 0.005917 -0.140439 0.014793 0.110647 -0.546139 -0.134052 0.024841 -0.595529 0.062628 -0.025572 0.053005 -0.001483 -0.000009 -0.000000 -0.000001 0.002473 -0.058570 0.006173 0.160550 0.162915 0.126871 -0.000000 -0.000003 -0.000004 -3.391877 5.741642 -3.301555 -0.000002 0.000001 -0.000002 0.000002 -0.000000 0.000002 0.000004 0.000001 0.000004 
29.233398 -9.233962 9.998515 0.000000 0.000000 0.000000 -0.005752 -0.061756 0.042245 -0.056542 0.378347 -0.152287 0.008929 -0.212468 0.022374 0.008649 -0.205674 0.021659 0.139647 1.963708 0.061178 -0.044274 1.024599 -0.108393 -0.000004 0.000002 -0.000000 0.000000 -0.000003 0.000001 0.008401 -0.199738 0.021035 0.157812 -0.776959 -0.191049 0.035146 -0.847373 0.089034 -0.036370 0.075379 -0.002116 -0.000006 0.000002 0.000001 0.003512 -0.083300 0.008778 0.228513 0.231603 0.180560 0.000003 0.000001 -0.000000 -3.391876 5.741644 -3.301555 0.000000 0.000001 0.000002 0.000002 -0.000000 0.000002 0.000003 -0.000000 0.000000 
29.233398 -9.233962 9.998515 0.000000 0.000000 0.000000 -0.007637 -0.084284 0.056686 -0.076065 0.510654 -0.204279 0.011994 -0.285674 0.030079 0.011614 -0.276536 0.029116 0.189095 2.651501 0.083762 -0.060022 1.378701 -0.146050 0.000003 -0.000001 0.000000 0.000003 -0.000002 -0.000001 0.011281 -0.268554 0.028274 0.212890 -1.044988 -0.257497 0.046978 -1.139935 0.119659 -0.048903 0.101347 -0.002858 -0.000004 0.000003 0.000001 0.004721 -0.111996 0.011800 0.307508 0.311236 0.242975 0.000003 -0.000002 -0.000000 -3.391876 5.741644 -3.301557 -0.000001 0.000004 0.000000 0.000000 -0.000003 0.000004 0.000002 -0.000001 0.000005 
29.233398 -9.233962 9.998515 0.000000 0.000000 0.000000 -0.009723 -0.110407 0.072998 -0.098254 0.661503 -0.262998 0.015450 -0.368640 0.038801 0.014958 -0.356848 0.037559 0.246016 3.438021 0.110334 -0.078188 1.780697 -0.188926 0.000003 0.000000 0.000001 0.000003 -0.000002 -0.000001 0.014531 -0.346548 0.036475 0.275751 -1.348982 -0.333186 0.060210 -1.471888 0.154336 -0.063103 0.130772 -0.003703 -0.000001 0.000002 0.000003 0.006084 -0.144519 0.015222 0.397195 0.401395 0.313841 0.000000 0.000001 -0.000005 -3.391871 5.741647 -3.301560 -0.000000 0.000004 0.000000 0.000001 -0.000001 -0.000002 0.000003 -0.000006 0.000003 
29.233398 -9.233962 9.998515 0.000000 0.000000 0.000000 -0.011997 -0.140163 0.091101 -0.123023 0.830519 -0.328147 0.019280 -0.461027 0.048507 0.018676 -0.446275 0.046958 0.310540 4.322592 0.141189 -0.098820 2.229130 -0.236918 0.000001 0.000000 0.000000 0.000004 -0.000000 -0.000002 0.018142 -0.433390 0.045604 0.346302 -1.687722 -0.417967 0.074731 -1.841970 0.192914 -0.078919 0.163539 -0.004659 -0.000006 -0.000000 -0.000000 0.007605 -0.180728 0.019037 0.497242 0.501664 0.392916 0.000009 -0.000003 -0.000002 -3.391871 5.741644 -3.301551 -0.000001 0.000003 0.000000 0.000005 -0.000002 0.000001 0.000006 -0.000003 0.000001 
29.233398 -9.233962 9.998515 0.000000 0.000000 0.000000 -0.014437 -0.173606 0.110913 -0.150355 1.017327 -0.399448 0.023475 -0.562495 0.059166 0.022734 -0.544498 0.057273 0.382851 5.304862 0.176674 -0.121970 2.722650 -0.289944 0.000002 0.000000 -0.000000 0.000002 -0.000002 0.000001 0.022085 -0.528778 0.055623 0.424477 -2.060069 -0.511690 0.090417 -2.249002 0.235241 -0.096286 0.199524 -0.005712 -0.000003 -0.000003 -0.000000 0.009276 -0.220500 0.023220 0.607356 0.611642 0.479962 0.000002 -0.000000 -0.000003 -3.391874 5.741644 -3.301557 -0.000000 0.000002 0.000003 0.000000 -0.000002 0.000001 0.000001 0.000001 0.000002 
29.233398 -9.233962 9.998515 0.000000 0.000000 0.000000 -0.017029 -0.210788 0.132362 -0.180182 1.221592 -0.476640 0.028005 -0.672730 0.070731 0.027130 -0.651207 0.068473 0.463207 6.384786 0.217204 -0.147706 3.259962 -0.347934 -0.000003 0.000000 -0.000000 0.000001 -0.000002 0.000001 0.026355 -0.632402 0.066500 0.510221 -2.464947 -0.614234 0.107147 -2.691839 0.281180 -0.115151 0.238614 -0.006871 -0.000005 0.000003 0.000002 0.011083 -0.263702 0.027766 0.727236 0.730952 0.574776 0.000001 0.000001 -0.000002 -3.391873 5.741648 -3.301559 -0.000002 0.000000 0.000005 0.000002 -0.000002 0.000001 0.000005 -0.000002 0.000003 
